<svg width="52" height="43" viewBox="0 0 52 43" fill="none" xmlns="http://www.w3.org/2000/svg">
<path fill-rule="evenodd" clip-rule="evenodd" d="M1.86742 40.733V8.13378H28.9997C29.018 8.13786 29.035 8.14434 29.0518 8.1507C29.0777 8.16058 29.103 8.17019 29.1314 8.17019C29.1614 8.17019 29.1919 8.16037 29.2223 8.15059C29.243 8.14393 29.2637 8.13729 29.284 8.13378H50.1343V27.2068H50.1378C50.7949 27.2068 51.4174 27.3559 52 27.6125V7.20267C52 6.6877 51.5804 6.26809 51.0654 6.26809H29.6898L26.8375 0.514972C26.6814 0.1994 26.3572 0 26.0017 0H4.06776C3.71577 0 3.3898 0.1994 3.23548 0.514972L0.0988329 6.79693C0.0813918 6.83472 0.0845267 6.87251 0.0876615 6.9103C0.0901364 6.94013 0.0926113 6.96997 0.0849617 6.9998C0.0776653 7.02972 0.0614651 7.05595 0.0451465 7.08237C0.0226853 7.11874 0 7.15547 0 7.20267V41.6676C0 42.1791 0.419607 42.5987 0.934578 42.5987H36.5474L34.6852 40.733H1.86742ZM50.8004 31.2134C50.6184 31.0314 50.3773 30.9395 50.1398 30.9395H50.1363C49.8988 30.9429 49.663 31.0314 49.4792 31.2134L41.2743 39.4148L37.5048 35.6384C37.3245 35.4563 37.0852 35.3644 36.8476 35.3644C36.6101 35.3644 36.3708 35.4563 36.187 35.6384C35.8212 36.0042 35.8212 36.5938 36.187 36.9596L39.9635 40.7326L40.6172 41.3898C40.7992 41.5718 41.0368 41.6672 41.2743 41.6672C41.5153 41.6672 41.7546 41.5718 41.9384 41.3898L42.5921 40.7326L50.1381 33.1936L50.8022 32.5295C51.1628 32.1688 51.1628 31.5758 50.8004 31.2134Z" fill="white"/>
</svg>
