<svg width="52" height="30" viewBox="0 0 52 30" fill="none" xmlns="http://www.w3.org/2000/svg">
<path fill-rule="evenodd" clip-rule="evenodd" d="M50.9592 0H40.3749H11.5169H0.932634C0.418733 0 0 0.415273 0 0.929173V29.0674C0 29.5847 0.418733 30 0.932634 30H11.5169H40.3749H50.9592C51.4731 30 51.8918 29.5847 51.8918 29.0674V0.929173C51.8918 0.415273 51.4731 0 50.9592 0ZM41.4743 4.74479C41.7754 5.38327 42.0021 6.04944 42.2443 6.70868C42.4104 7.15164 42.6094 7.5773 42.7444 8.02717C42.9676 8.7712 43.1095 9.53773 43.2583 10.3008C43.3396 10.6901 43.4573 11.0673 43.5144 11.4601C43.6874 12.6263 43.7774 13.8047 43.7774 14.9986C43.7774 16.1925 43.6857 17.3743 43.5144 18.5405C43.4573 18.9333 43.3379 19.3105 43.2583 19.6963C43.1095 20.4629 42.9676 21.2277 42.7444 21.97C42.6094 22.4198 42.4104 22.849 42.2443 23.2885C42.0004 23.9477 41.7754 24.6173 41.4743 25.2558C41.265 25.6988 40.9951 26.1175 40.758 26.5501C40.4638 27.0847 40.1766 27.6246 39.8427 28.1385H12.0523C11.7183 27.6246 11.4311 27.0847 11.1369 26.5501C10.8999 26.1175 10.63 25.6988 10.4206 25.2558C10.1195 24.6173 9.89285 23.9477 9.65061 23.2885C9.4845 22.849 9.28551 22.4198 9.15055 21.97C8.92734 21.2259 8.78545 20.4629 8.63665 19.6963C8.55532 19.3105 8.4342 18.9333 8.38056 18.5405C8.20753 17.3743 8.11756 16.1925 8.11756 14.9986C8.11756 13.8047 8.20926 12.6263 8.38056 11.4601C8.4342 11.0673 8.55705 10.6901 8.63665 10.3008C8.78545 9.53773 8.92734 8.76947 9.15055 8.02717C9.28551 7.5773 9.4845 7.15164 9.65061 6.70868C9.89458 6.04944 10.1195 5.38327 10.4206 4.74479C10.63 4.29837 10.8999 3.87964 11.1369 3.44706C11.4311 2.9124 11.7183 2.376 12.0523 1.8621H39.8427C40.1766 2.376 40.4638 2.9124 40.758 3.44706C40.9933 3.87964 41.265 4.29837 41.4743 4.74479ZM1.8621 28.1385V1.8621H9.82842C9.61559 2.21682 9.46679 2.59921 9.27472 2.96085C9.03767 3.40726 8.80062 3.85368 8.59471 4.31221C8.2798 5.0026 8.01679 5.70511 7.76936 6.41799C7.61017 6.86095 7.44233 7.29007 7.31083 7.73648C7.07724 8.53761 6.91459 9.35086 6.7554 10.1693C6.68446 10.5517 6.58237 10.9289 6.52527 11.3148C6.35224 12.5277 6.25188 13.7579 6.25188 14.9986C6.25188 16.2427 6.35397 17.4694 6.52527 18.6824C6.58237 19.0717 6.68446 19.4454 6.7554 19.8313C6.91459 20.6497 7.07724 21.463 7.3091 22.2641C7.4406 22.7071 7.61017 23.1396 7.76936 23.5791C8.01679 24.292 8.2798 24.998 8.59471 25.6849C8.80062 26.1452 9.03767 26.5899 9.27472 27.0363C9.46679 27.4014 9.61559 27.7838 9.82842 28.1385H1.8621ZM50.0293 28.1385H42.0629C42.2758 27.7838 42.4246 27.4014 42.6166 27.0363C42.8537 26.5899 43.089 26.1435 43.2966 25.6849C43.6116 24.9997 43.8746 24.292 44.122 23.5791C44.2812 23.1396 44.449 22.7071 44.5823 22.2641C44.8158 21.463 44.9785 20.648 45.136 19.8313C45.2069 19.4454 45.309 19.0717 45.3661 18.6824C45.5391 17.4694 45.6395 16.2427 45.6395 14.9986C45.6395 13.7579 45.5374 12.5277 45.3661 11.3148C45.309 10.9289 45.2069 10.5517 45.136 10.1693C44.9768 9.35086 44.8141 8.53761 44.5823 7.73648C44.4508 7.29007 44.2812 6.86095 44.122 6.41799C43.8746 5.70511 43.6116 5.0026 43.2966 4.31221C43.0907 3.85195 42.8537 3.40726 42.6166 2.96085C42.4246 2.59921 42.2758 2.21682 42.0629 1.8621H50.0293V28.1385ZM25.9441 23.4087C23.058 23.4087 20.6217 19.5587 20.6217 14.9976C20.6217 10.4383 23.058 6.58664 25.9441 6.58664C28.8337 6.58664 31.27 10.44 31.27 14.9976C31.27 19.5605 28.8337 23.4087 25.9441 23.4087ZM25.9438 4.72792C21.9832 4.72792 18.7596 9.33399 18.7596 14.999C18.7596 20.664 21.9832 25.2735 25.9438 25.2735C29.9079 25.2735 33.1315 20.664 33.1315 14.999C33.1315 9.33399 29.9079 4.72792 25.9438 4.72792Z" fill="white"/>
</svg>
