<svg width="43" height="39" viewBox="0 0 43 39" fill="none" xmlns="http://www.w3.org/2000/svg">
<path fill-rule="evenodd" clip-rule="evenodd" d="M41.3956 31.3164L42.1487 30.5633C42.4554 30.2566 42.4554 29.7624 42.1487 29.4556C41.996 29.3044 41.7939 29.2288 41.5919 29.2288C41.3927 29.2288 41.195 29.3059 41.0409 29.4556L40.6324 29.8641L39.5 30.9965L34.162 36.3287L31.006 33.1684C30.8534 33.0157 30.6513 32.9387 30.4492 32.9387C30.2501 32.9387 30.0524 33.0157 29.8983 33.1684C29.5945 33.4722 29.5945 33.9694 29.8983 34.2732L33.0586 37.4365L33.614 37.9903C33.7651 38.143 33.9628 38.2171 34.162 38.2171C34.3641 38.2171 34.5647 38.143 34.7188 37.9903L35.2697 37.4365L40.2327 32.4764L41.3956 31.3164ZM14.052 17.7898C14.2447 21.7743 17.5465 24.9603 21.5791 24.9603C25.7396 24.9603 29.118 21.5747 29.118 17.4214V9.10186C29.118 8.9779 29.115 8.85462 29.109 8.7321C29.115 8.85415 29.1179 8.97696 29.1179 9.10044V17.42C29.1179 21.5747 25.7381 24.9589 21.579 24.9589C17.5455 24.9589 14.2454 21.7737 14.052 17.7898ZM21.5788 26.5199C26.5984 26.5199 30.6819 22.4394 30.6819 17.4197V9.10019C30.6819 4.08055 26.5984 0 21.5788 0C16.5591 0 12.4786 4.08055 12.4786 9.10019V17.4197C12.4786 22.4408 16.5591 26.5199 21.5788 26.5199ZM1.61507 37.437L1.61522 37.4355H28.6365L30.2007 38.9997H0.783547C0.575667 38.9997 0.377963 38.9183 0.229685 38.77C0.0828612 38.6246 0 38.4269 0 38.2162C0 38.1115 0.122111 27.5867 10.269 22.9639C10.6353 22.7909 11.0685 22.9392 11.2735 23.2939C13.3668 27.027 17.3122 29.3471 21.5802 29.3471C25.8454 29.3471 29.7966 27.027 31.887 23.2939C32.0876 22.9377 32.5281 22.7938 32.8944 22.9639C35.4341 24.1225 37.3457 25.6503 38.7819 27.2916L37.6626 28.408C36.4676 27.0299 34.9325 25.7274 32.8741 24.6909C30.426 28.5461 26.1652 30.9113 21.5788 30.9113C16.9924 30.9113 12.7286 28.5461 10.2835 24.6909C3.15604 28.2851 1.85402 35.1256 1.61522 37.4355H1.61507V37.437Z" fill="white"/>
</svg>
