<svg width="48" height="48" viewBox="0 0 48 48" fill="none" xmlns="http://www.w3.org/2000/svg">
<path fill-rule="evenodd" clip-rule="evenodd" d="M21.1108 47.9984C20.7171 47.9984 20.3729 47.7295 20.2769 47.3485L18.7947 41.4214C17.6407 41.0644 16.5026 40.581 15.403 39.984L10.1321 43.1485C9.79432 43.3517 9.36054 43.2957 9.08203 43.0204L4.98599 38.9244C4.70748 38.6459 4.65466 38.2121 4.85794 37.8743L8.02241 32.6098C7.43497 31.5214 6.96278 30.3866 6.61224 29.2213L0.653061 27.7295C0.272109 27.6351 0 27.2893 0 26.8972V21.1108C0 20.7139 0.272109 20.3697 0.653061 20.2769L6.57703 18.7979C6.94038 17.6311 7.42377 16.4946 8.01761 15.3998L4.85314 10.1289C4.64986 9.78792 4.70268 9.35414 4.98119 9.07563L9.07083 4.98599C9.35254 4.70428 9.78631 4.64826 10.124 4.85794L15.395 8.01921C16.4802 7.43818 17.615 6.96278 18.7803 6.61224L20.2689 0.653061C20.3665 0.268908 20.7091 0 21.1028 0H26.8892C27.2829 0 27.6303 0.268908 27.7231 0.653061L29.2053 6.58343C30.3689 6.94678 31.507 7.42697 32.5938 8.01601L37.8711 4.84834C38.2025 4.65466 38.6395 4.70428 38.9212 4.97959L43.0108 9.06923C43.2925 9.34774 43.3453 9.78151 43.1421 10.1224L39.9776 15.3998C40.5586 16.4818 41.0308 17.6166 41.3814 18.7755L47.3469 20.2705C47.7311 20.3649 48 20.7107 48 21.1044V26.8844C48 27.2781 47.7311 27.6254 47.3469 27.7183L41.3814 29.2133C41.0308 30.3818 40.5586 31.5166 39.9808 32.5922L43.1485 37.8663C43.3517 38.2073 43.2989 38.6411 43.0172 38.9196L38.9276 43.0156C38.6459 43.2941 38.2121 43.3405 37.8775 43.1469L32.6002 39.9792C31.5118 40.573 30.3737 41.0516 29.2085 41.4166L27.7327 47.3437C27.6351 47.7247 27.2925 47.9936 26.8956 47.9936L21.1108 47.9984ZM15.3872 38.1259C15.5345 38.1259 15.6849 38.1627 15.8194 38.2412C17.0823 38.9695 18.4044 39.5297 19.7458 39.901C20.0435 39.9859 20.2708 40.226 20.3492 40.5269L21.7866 46.2764L26.2252 46.2732L27.6593 40.5205C27.7346 40.2228 27.9619 39.9859 28.2596 39.901C29.6201 39.5201 30.939 38.9599 32.1859 38.238C32.4581 38.0779 32.7894 38.0843 33.0583 38.2444L38.1852 41.324L41.3272 38.1755L38.2476 33.0551C38.0843 32.7862 38.0843 32.4517 38.238 32.1795C38.9471 30.9503 39.4913 29.6409 39.861 28.2756C39.9426 27.9747 40.1795 27.741 40.4837 27.6657L46.2796 26.2124V21.777L40.4837 20.3268C40.1811 20.2516 39.9426 20.0179 39.861 19.717C39.4945 18.3628 38.9487 17.0471 38.238 15.8098C38.0843 15.5409 38.0875 15.2064 38.2476 14.9374L41.3208 9.8138L38.1819 6.67494L33.0551 9.75138C32.7894 9.91464 32.4581 9.91944 32.1827 9.75778C30.9326 9.03909 29.6137 8.47887 28.2564 8.09791C27.9587 8.01628 27.7314 7.77939 27.6561 7.47847L26.2188 1.72256H21.7802L20.3332 7.51208C20.258 7.813 20.0243 8.0531 19.7234 8.13473C18.3628 8.50288 17.0471 9.05029 15.8098 9.76098C15.5409 9.92104 15.2096 9.91784 14.9374 9.75138L9.817 6.67815L6.67815 9.8202L9.75138 14.9374C9.91464 15.2064 9.91464 15.5409 9.75778 15.813C9.03589 17.0695 8.47246 18.3916 8.09471 19.7458C8.00988 20.0467 7.77298 20.274 7.47206 20.3492L1.72256 21.7834V26.222L7.51208 27.6721C7.8146 27.7474 8.0531 27.9811 8.13473 28.282C8.50288 29.6393 9.04709 30.9551 9.76418 32.1923C9.92104 32.4645 9.91784 32.799 9.75458 33.0679L6.68135 38.1819L9.8234 41.3272L14.9439 38.2508C15.0815 38.1675 15.2352 38.1259 15.3872 38.1259ZM24.0062 19.0748C21.2899 19.0748 19.0826 21.2853 19.0826 23.9984C19.0826 26.7115 21.2899 28.922 24.0062 28.922C26.7161 28.922 28.9234 26.7115 28.9234 23.9984C28.9234 21.2853 26.7161 19.0748 24.0062 19.0748ZM24.0059 30.6455C20.3421 30.6455 17.3601 27.6667 17.3601 23.9997C17.3601 20.3326 20.3421 17.3538 24.0059 17.3538C27.6666 17.3538 30.6454 20.3326 30.6454 23.9997C30.6454 27.6667 27.6666 30.6455 24.0059 30.6455Z" fill="white"/>
</svg>
