<svg width="55" height="51" viewBox="0 0 55 51" fill="none" xmlns="http://www.w3.org/2000/svg">
<path fill-rule="evenodd" clip-rule="evenodd" d="M47.0357 8.53506H53.5706C54.1114 8.53506 54.5479 8.09684 54.5479 7.55777C54.5479 7.02044 54.1097 6.58048 53.5706 6.58048H47.0357C46.4931 6.58048 46.0549 7.02218 46.0549 7.55777C46.0532 8.09684 46.4914 8.53506 47.0357 8.53506ZM4.26046 48.8275C2.99277 48.8275 1.95462 47.7946 1.95462 46.5182V14.4329C2.10069 14.5286 2.26763 14.572 2.42413 14.6503C2.54934 14.7111 2.66932 14.772 2.80148 14.8172C3.25709 14.9876 3.72834 15.0989 4.23785 15.0989C4.24481 15.0989 4.24829 15.1094 4.25524 15.1094C4.25872 15.1094 4.25872 15.1094 4.2622 15.1094H4.26568H11.0754H37.3665H50.3199H52.5892V29.3444H33.9234C33.3861 29.3444 32.9478 29.7861 32.9478 30.3217V36.8931C32.9478 37.4357 33.3861 37.8739 33.9234 37.8739H52.5892V48.8275H4.26046ZM24.2176 2.36388L34.9938 13.154H13.4344L24.2176 2.36388ZM40.4632 5.64988L47.9598 13.1517H37.7678L35.3733 10.7502L40.4632 5.64988ZM52.588 35.9197H34.8995V31.301H52.588V35.9197ZM54.5439 14.1272C54.5439 13.5864 54.1056 13.1516 53.5631 13.1516H50.7234L41.1522 3.58049C40.7888 3.21009 40.1367 3.21009 39.7733 3.58049L33.9826 9.36422L24.9105 0.292143C24.7279 0.106076 24.4792 0 24.2184 0C23.961 0 23.7123 0.106076 23.5263 0.292143L10.6668 13.1516H4.2605H4.25702H4.25354C3.63796 13.1516 3.06063 12.9065 2.62589 12.4682C2.372 12.2109 2.20506 11.8944 2.09551 11.5518C2.02074 11.324 1.95292 11.0927 1.95292 10.8423C1.95292 10.2215 2.19115 9.64593 2.62589 9.2112C3.05715 8.77646 3.63796 8.53127 4.25876 8.53127H14.5638C15.1046 8.53127 15.541 8.09305 15.541 7.55398C15.541 7.01665 15.1028 6.57669 14.5638 6.57669H4.25876C3.11453 6.57669 2.04508 7.01839 1.23995 7.83047C0.438295 8.63213 -0.00687548 9.70158 8.03026e-05 10.8423V46.5185C8.03026e-05 48.8748 1.90944 50.7842 4.25876 50.7842H53.5614C54.1039 50.7842 54.5421 50.3494 54.5421 49.8069V36.9039C54.5421 36.9039 54.5456 36.9039 54.5456 36.8935V30.322L54.5421 30.3116V14.1272H54.5439Z" fill="white"/>
</svg>
