<svg width="35" height="49" viewBox="0 0 35 49" fill="none" xmlns="http://www.w3.org/2000/svg">
<path fill-rule="evenodd" clip-rule="evenodd" d="M33.1171 27.2057C33.8409 26.4852 34.2379 25.5244 34.2379 24.5C34.2379 22.5246 32.7151 20.9447 30.7823 20.7437C30.1499 18.2096 28.8706 15.8519 27.0096 13.8667L25.3725 0.769557C25.3186 0.328409 24.9444 0 24.5016 0H6.78386C6.34108 0 5.96692 0.328409 5.90974 0.769557L4.27913 13.8112C1.53421 16.7276 0 20.5035 0 24.4984C0 28.4965 1.53421 32.2691 4.27913 35.1888L5.90974 48.2304C5.96692 48.6683 6.34108 49 6.78386 49H24.5016C24.9444 49 25.3186 48.6683 25.3725 48.2304L27.0096 35.1333C28.8739 33.1448 30.1532 30.7872 30.7823 28.2563C31.658 28.1681 32.488 27.8364 33.1171 27.2057ZM32.482 24.4976C32.482 25.0531 32.2647 25.5695 31.8726 25.9616C31.6684 26.1691 31.4233 26.3259 31.157 26.4272C31.2436 25.777 31.2844 25.1381 31.2844 24.496C31.2844 23.8604 31.2436 23.2134 31.157 22.5647C31.9298 22.867 32.482 23.6202 32.482 24.4976ZM7.5578 1.75833H23.725L25.0076 12.0273C24.8867 11.9341 24.7495 11.8704 24.6286 11.7854C24.3737 11.6041 24.109 11.4505 23.8443 11.2838C23.292 10.9326 22.7267 10.6172 22.1369 10.3395C21.8363 10.2022 21.5373 10.0682 21.2268 9.94733C20.6141 9.70878 19.9851 9.51925 19.3446 9.36077C19.057 9.29051 18.776 9.20065 18.4901 9.14673C17.5555 8.97517 16.6078 8.85917 15.6439 8.85917C14.6733 8.85917 13.7224 8.97027 12.7944 9.14019C12.497 9.19738 12.216 9.28724 11.9301 9.35423C11.2879 9.51435 10.6671 9.69571 10.0544 9.93262C9.74229 10.0535 9.43839 10.1842 9.13776 10.3248C8.55446 10.5927 7.99241 10.8999 7.44669 11.2414C7.17874 11.4113 6.90751 11.5632 6.65263 11.7462C6.53172 11.8328 6.40101 11.8933 6.28501 11.9799L7.5578 1.75833ZM23.7235 47.2418H7.55628L6.28022 37.0236C6.39459 37.1134 6.5253 37.1706 6.64784 37.2572C6.90273 37.4386 7.17395 37.5921 7.43864 37.7588C7.98762 38.1003 8.54967 38.4091 9.13297 38.677C9.4336 38.8176 9.73587 38.9483 10.0496 39.0692C10.6623 39.3061 11.2848 39.4874 11.9285 39.6476C12.2128 39.7146 12.4939 39.8044 12.7863 39.8583C13.7176 40.0299 14.6653 40.1426 15.6391 40.1426C16.6031 40.1426 17.5507 40.0283 18.482 39.8551C18.7761 39.8012 19.062 39.708 19.3496 39.6345C19.9852 39.4776 20.6093 39.293 21.2171 39.0561C21.5292 38.9319 21.8364 38.798 22.1452 38.6542C22.7252 38.3829 23.284 38.0709 23.8297 37.7261C24.0977 37.5546 24.3689 37.3977 24.6303 37.2131C24.7512 37.1265 24.8819 37.0595 25.0045 36.9713L23.7235 47.2418ZM25.5412 34.1547C22.8861 36.88 19.37 38.3831 15.6415 38.3831C11.895 38.3831 8.38219 36.9061 5.74838 34.2249C3.17339 31.6025 1.75355 28.1453 1.75355 24.4984C1.75355 20.8549 3.17339 17.3976 5.74838 14.7752C8.38056 12.094 11.895 10.617 15.6415 10.617C19.3651 10.617 22.8829 12.1169 25.5412 14.8455C27.4561 16.8078 28.7387 19.2079 29.2501 21.7797C29.4347 22.693 29.5278 23.6112 29.5278 24.4984C29.5278 25.3856 29.4347 26.2761 29.2501 27.2238C28.7419 29.7873 27.4593 32.1891 25.5412 34.1547ZM16.5188 24.1391V15.6413C16.5188 15.1593 16.1267 14.7639 15.6414 14.7639C15.1561 14.7639 14.7607 15.1593 14.7607 15.6413V24.5068C14.7607 24.7273 14.8473 24.9528 15.0189 25.126L19.1935 29.3038C19.365 29.4737 19.5889 29.5587 19.816 29.5587C20.0431 29.5587 20.2653 29.4721 20.4385 29.3038C20.7832 28.9591 20.7832 28.4036 20.4385 28.0588L16.5188 24.1391Z" fill="white"/>
</svg>
