<svg width="25" height="31" viewBox="0 0 25 31" fill="none" xmlns="http://www.w3.org/2000/svg">
<path fill-rule="evenodd" clip-rule="evenodd" d="M23.0263 0H1.97368C0.883649 0 0 0.883649 0 1.97368V28.2895C0 29.3795 0.883649 30.2632 1.97368 30.2632H23.0263C24.1164 30.2632 25 29.3795 25 28.2895V1.97368C25 0.883649 24.1164 0 23.0263 0ZM23.0263 28.2895H1.97368V1.97368H23.0263V28.2895Z" fill="#E9C47E"/>
<path fill-rule="evenodd" clip-rule="evenodd" d="M5.26311 8.55271H19.7368C20.8268 8.55271 21.7105 7.66906 21.7105 6.57902V5.26323C21.7105 4.1732 20.8268 3.28955 19.7368 3.28955H5.26311C4.17308 3.28955 3.28943 4.1732 3.28943 5.26323V6.57902C3.28943 7.10248 3.49737 7.60449 3.86751 7.97463C4.23764 8.34477 4.73966 8.55271 5.26311 8.55271ZM5.26352 5.26365H19.7372V6.57944H5.26352V5.26365Z" fill="#E9C47E"/>
<path fill-rule="evenodd" clip-rule="evenodd" d="M5.26311 15.1318H6.5789C7.66894 15.1318 8.55259 14.2482 8.55259 13.1581V11.8423C8.55259 10.7523 7.66894 9.86865 6.5789 9.86865H5.26311C4.17308 9.86865 3.28943 10.7523 3.28943 11.8423V13.1581C3.28943 14.2482 4.17308 15.1318 5.26311 15.1318ZM5.26352 11.8426H6.57931V13.1584H5.26352V11.8426Z" fill="#E9C47E"/>
<path fill-rule="evenodd" clip-rule="evenodd" d="M13.1579 9.86865H11.8421C10.7521 9.86865 9.86841 10.7523 9.86841 11.8423V13.1581C9.86841 14.2482 10.7521 15.1318 11.8421 15.1318H13.1579C14.2479 15.1318 15.1316 14.2482 15.1316 13.1581V11.8423C15.1316 10.7523 14.2479 9.86865 13.1579 9.86865ZM13.1572 13.1584H11.8414V11.8426H13.1572V13.1584Z" fill="#E9C47E"/>
<path fill-rule="evenodd" clip-rule="evenodd" d="M19.7369 9.86865H18.4211C17.331 9.86865 16.4474 10.7523 16.4474 11.8423V13.1581C16.4474 14.2482 17.331 15.1318 18.4211 15.1318H19.7369C20.8269 15.1318 21.7105 14.2482 21.7105 13.1581V11.8423C21.7105 10.7523 20.8269 9.86865 19.7369 9.86865ZM19.737 13.1584H18.4212V11.8426H19.737V13.1584Z" fill="#E9C47E"/>
<path fill-rule="evenodd" clip-rule="evenodd" d="M5.26311 21.0527H6.5789C7.66894 21.0527 8.55259 20.1691 8.55259 19.079V17.7632C8.55259 16.6732 7.66894 15.7896 6.5789 15.7896H5.26311C4.17308 15.7896 3.28943 16.6732 3.28943 17.7632V19.079C3.28943 20.1691 4.17308 21.0527 5.26311 21.0527ZM5.26352 17.7636H6.57931V19.0794H5.26352V17.7636Z" fill="#E9C47E"/>
<path fill-rule="evenodd" clip-rule="evenodd" d="M13.1579 15.7896H11.8421C10.7521 15.7896 9.86841 16.6732 9.86841 17.7632V19.079C9.86841 20.1691 10.7521 21.0527 11.8421 21.0527H13.1579C14.2479 21.0527 15.1316 20.1691 15.1316 19.079V17.7632C15.1316 16.6732 14.2479 15.7896 13.1579 15.7896ZM13.1572 19.0794H11.8414V17.7636H13.1572V19.0794Z" fill="#E9C47E"/>
<path fill-rule="evenodd" clip-rule="evenodd" d="M19.7369 15.7896H18.4211C17.331 15.7896 16.4474 16.6732 16.4474 17.7632V19.079C16.4474 20.1691 17.331 21.0527 18.4211 21.0527H19.7369C20.8269 21.0527 21.7105 20.1691 21.7105 19.079V17.7632C21.7105 16.6732 20.8269 15.7896 19.7369 15.7896ZM19.737 19.0794H18.4212V17.7636H19.737V19.0794Z" fill="#E9C47E"/>
<path fill-rule="evenodd" clip-rule="evenodd" d="M5.26311 26.9736H6.5789C7.66894 26.9736 8.55259 26.09 8.55259 24.9999V23.6841C8.55259 22.5941 7.66894 21.7104 6.5789 21.7104H5.26311C4.17308 21.7104 3.28943 22.5941 3.28943 23.6841V24.9999C3.28943 26.09 4.17308 26.9736 5.26311 26.9736ZM5.26352 23.6837H6.57931V24.9995H5.26352V23.6837Z" fill="#E9C47E"/>
<path fill-rule="evenodd" clip-rule="evenodd" d="M13.1579 21.7104H11.8421C10.7521 21.7104 9.86841 22.5941 9.86841 23.6841V24.9999C9.86841 26.09 10.7521 26.9736 11.8421 26.9736H13.1579C14.2479 26.9736 15.1316 26.09 15.1316 24.9999V23.6841C15.1316 22.5941 14.2479 21.7104 13.1579 21.7104ZM13.1572 24.9995H11.8414V23.6837H13.1572V24.9995Z" fill="#E9C47E"/>
<path fill-rule="evenodd" clip-rule="evenodd" d="M19.7369 21.7104H18.4211C17.331 21.7104 16.4474 22.5941 16.4474 23.6841V24.9999C16.4474 26.09 17.331 26.9736 18.4211 26.9736H19.7369C20.8269 26.9736 21.7105 26.09 21.7105 24.9999V23.6841C21.7105 22.5941 20.8269 21.7104 19.7369 21.7104ZM19.737 24.9995H18.4212V23.6837H19.737V24.9995Z" fill="#E9C47E"/>
</svg>
