<svg width="28" height="25" viewBox="0 0 28 25" fill="none" xmlns="http://www.w3.org/2000/svg">
<path fill-rule="evenodd" clip-rule="evenodd" d="M26 4H20V2C20 0.89543 19.1046 0 18 0H10C8.89543 0 8 0.89543 8 2V4H2C0.895431 4 0 4.89543 0 6V22.6667C0 23.7712 0.895431 24.6667 2 24.6667H26C27.1046 24.6667 28 23.7712 28 22.6667V6C28 4.89543 27.1046 4 26 4ZM10 2H18V4H10V2ZM25.9995 6V11.0067C25.8448 11.0048 25.6919 11.039 25.5528 11.1067C22.8751 12.348 20.0726 13.3 17.1928 13.9467C16.896 13.1774 16.1574 12.6691 15.3328 12.6667H12.6661C11.8206 12.669 11.068 13.2028 10.7861 14C7.86154 13.3816 5.02294 12.4101 2.33281 11.1067C2.21823 11.0499 2.09369 11.0159 1.96615 11.0067V6H25.9995ZM15.3333 14.6667V16.6667H12.6667V14.6667H15.3333ZM2 22.6664V13.193C4.7693 14.4749 7.67749 15.4324 10.6667 16.0464V16.6664C10.6667 17.771 11.5621 18.6664 12.6667 18.6664H15.3333C16.4379 18.6664 17.3333 17.771 17.3333 16.6664V15.9464C20.3369 15.3606 23.2506 14.3834 26 13.0397V22.6664H2Z" fill="#E9C47E"/>
</svg>
