<svg width="32" height="32" viewBox="0 0 32 32" fill="none" xmlns="http://www.w3.org/2000/svg">
<path fill-rule="evenodd" clip-rule="evenodd" d="M30.7038 9.61375C31.3789 8.54859 31.4548 7.21003 30.9045 6.07539C30.3542 4.94075 29.2561 4.17155 28.0018 4.04208H27.6376C27.3502 4.04474 27.0642 4.08142 26.7855 4.15133C21.167 -0.941436 12.7478 -1.39826 6.61121 3.05668C0.474659 7.51163 -1.69868 15.6583 1.40341 22.5779C0.634788 23.6324 0.489145 25.0176 1.02163 26.2089C1.55411 27.4002 2.68332 28.2156 3.98167 28.3462H4.34584C4.7681 28.3457 5.18706 28.2718 5.58399 28.1277C11.248 32.9535 19.4888 33.245 25.4796 28.8314C31.4703 24.4178 33.6343 16.4607 30.7038 9.62103V9.61375ZM29.0867 7.80771C29.0116 8.55483 28.3809 9.12246 27.6301 9.11869H27.4844C26.6799 9.07847 26.0603 8.3937 26.1006 7.58922C26.1408 6.78473 26.8256 6.16518 27.6301 6.2054H27.7757C28.1628 6.24216 28.5192 6.43217 28.7654 6.73312C29.0116 7.03408 29.1273 7.42099 29.0867 7.80771ZM15.9767 2.12665C19.2109 2.1259 22.3418 3.26582 24.8185 5.34584C23.7139 6.6896 23.7139 8.62692 24.8185 9.97069L21.0531 16.7441C20.9354 16.7137 20.8163 16.6894 20.6962 16.6713H20.332C19.5641 16.6837 18.8197 16.9386 18.2053 17.3996L14.7021 13.8963C15.3343 12.8281 15.3787 11.5113 14.8201 10.4028C14.2614 9.2943 13.1765 8.54672 11.9417 8.41936H11.5776C10.1694 8.41842 8.88691 9.22943 8.28409 10.502C7.68127 11.7747 7.86619 13.2808 8.75897 14.3698L4.99354 21.1432C4.87591 21.1128 4.75679 21.0885 4.63666 21.0703H4.2725C3.89347 21.0751 3.51749 21.139 3.15817 21.2597C2.4776 19.5784 2.13841 17.7785 2.16037 15.9648C2.16037 8.32219 8.35591 2.12665 15.9985 2.12665H15.9767ZM21.8035 20.4801C21.7284 21.2272 21.0977 21.7949 20.3468 21.7911H20.2012C19.3967 21.7509 18.7771 21.0661 18.8173 20.2616C18.8576 19.4571 19.5423 18.8376 20.3468 18.8778H20.4925C20.8822 18.9109 21.2423 19.0993 21.4916 19.4007C21.7409 19.7021 21.8585 20.0911 21.818 20.4801H21.8035ZM13.0636 12.1848C12.9885 12.9319 12.3578 13.4995 11.6069 13.4957H11.4613C10.6568 13.4555 10.0372 12.7708 10.0775 11.9663C10.1177 11.1618 10.8025 10.5422 11.6069 10.5825H11.7526C12.1383 10.6193 12.4935 10.8083 12.7395 11.1076C12.9855 11.4069 13.1022 11.7919 13.0636 12.1775V12.1848ZM4.32371 26.1689H4.17805C3.37356 26.1286 2.75401 25.4439 2.79423 24.6394C2.83446 23.8349 3.51923 23.2153 4.32371 23.2556H4.46938C5.27386 23.2958 5.89341 23.9806 5.85319 24.785C5.81297 25.5895 5.12819 26.2091 4.32371 26.1689ZM15.9771 29.81C12.8277 29.8119 9.77312 28.732 7.32465 26.7511C8.29695 25.3456 8.14145 23.4492 6.95321 22.2209L10.6604 15.5495C10.8463 15.6034 11.0363 15.6423 11.2285 15.666H11.5926C12.0956 15.6585 12.5916 15.5469 13.0493 15.3383L16.8657 19.1547C16.4973 20.2176 16.6409 21.3912 17.2547 22.334C17.8685 23.2768 18.8836 23.8829 20.0048 23.9762H20.3689C21.8156 23.9654 23.1187 23.0993 23.6887 21.7696C24.2588 20.44 23.9878 18.899 22.9982 17.8437L26.7053 11.1722C26.8913 11.2261 27.0813 11.2651 27.2734 11.2888H27.6376C28.0754 11.2888 28.5096 11.2098 28.9194 11.0557C29.5207 12.6175 29.8293 14.2766 29.8298 15.95C29.8337 19.6214 28.3785 23.1438 25.7845 25.7419C23.1905 28.34 19.6703 29.8008 15.999 29.8028L15.9771 29.81Z" fill="#E9C47E"/>
</svg>
