<svg width="30" height="30" viewBox="0 0 30 30" fill="none" xmlns="http://www.w3.org/2000/svg">
<path fill-rule="evenodd" clip-rule="evenodd" d="M15 30C23.2843 30 30 23.2843 30 15C30 6.71573 23.2843 0 15 0C6.71573 0 0 6.71573 0 15C0 23.2843 6.71573 30 15 30ZM12.7508 8.9998H17.2508C19.3215 8.9998 21.0008 10.6791 21.0008 12.7498V17.2498C21.0008 19.3206 19.3215 20.9998 17.2508 20.9998H12.7508C10.68 20.9998 9.00078 19.3206 9.00078 17.2498V12.7498C9.00078 10.6791 10.68 8.9998 12.7508 8.9998ZM17.2508 19.8748C18.6983 19.8748 19.8758 18.6973 19.8758 17.2498V12.7498C19.8758 11.3023 18.6983 10.1248 17.2508 10.1248H12.7508C11.3033 10.1248 10.1258 11.3023 10.1258 12.7498V17.2498C10.1258 18.6973 11.3033 19.8748 12.7508 19.8748H17.2508ZM15.0008 11.9997C13.344 11.9997 12.0008 13.343 12.0008 14.9997C12.0008 16.6565 13.344 17.9997 15.0008 17.9997C16.6575 17.9997 18.0008 16.6565 18.0008 14.9997C18.0008 13.343 16.6575 11.9997 15.0008 11.9997ZM15.0008 16.8747C13.9673 16.8747 13.1258 16.0332 13.1258 14.9997C13.1258 13.9655 13.9673 13.1247 15.0008 13.1247C16.0343 13.1247 16.8758 13.9655 16.8758 14.9997C16.8758 16.0332 16.0343 16.8747 15.0008 16.8747ZM18.6256 11.7747C18.6256 11.9955 18.4467 12.1745 18.2259 12.1745C18.0051 12.1745 17.8261 11.9955 17.8261 11.7747C17.8261 11.5539 18.0051 11.375 18.2259 11.375C18.4467 11.375 18.6256 11.5539 18.6256 11.7747Z" fill="#152748" fill-opacity="0.2"/>
</svg>
