<svg width="26" height="29" viewBox="0 0 26 29" fill="none" xmlns="http://www.w3.org/2000/svg">
<path fill-rule="evenodd" clip-rule="evenodd" d="M21.75 27.0227H1.97727V1.97727H13.1818V0H1.97727C0.885255 0 0 0.885255 0 1.97727V27.0227C0 28.1147 0.885255 29 1.97727 29H21.75C22.842 29 23.7273 28.1147 23.7273 27.0227V14.5H21.75V27.0227Z" fill="#E9C47E"/>
<path fill-rule="evenodd" clip-rule="evenodd" d="M25.1248 2.46479L23.7275 1.06752C22.9555 0.296504 21.7049 0.296504 20.9329 1.06752C20.9329 1.06752 9.9459 12.0414 9.78112 12.7071L9.28681 14.6843C9.11759 15.3586 9.3149 16.0722 9.80647 16.5638C10.298 17.0553 11.0116 17.2526 11.6859 17.0834L13.6632 16.5891C14.3223 16.4177 25.1248 5.26593 25.1248 5.26593C25.8958 4.49395 25.8958 3.24336 25.1248 2.47138V2.46479ZM14.4494 13.1423L13.0982 11.7911L13.0521 11.7516L22.3321 2.47159L23.7294 3.86886L14.4494 13.1423Z" fill="#E9C47E"/>
</svg>
