<svg width="18" height="18" viewBox="0 0 18 18" fill="none" xmlns="http://www.w3.org/2000/svg">
<path d="M17.2624 15.9083L14.1415 12.8417C15.3529 11.3453 15.9396 9.44608 15.7809 7.53441C15.6221 5.62275 14.7301 3.84398 13.2881 2.56387C11.8462 1.28375 9.96399 0.599588 8.0285 0.652055C6.09301 0.704522 4.25136 1.48963 2.88225 2.84595C1.51314 4.20227 0.720623 6.0267 0.667661 7.9441C0.614699 9.8615 1.30532 11.7261 2.59751 13.1546C3.8897 14.5831 5.68525 15.4668 7.61495 15.624C9.54465 15.7812 11.4618 15.2001 12.9723 14L16.0679 17.0667C16.1461 17.1448 16.2391 17.2068 16.3416 17.2491C16.4441 17.2914 16.5541 17.3132 16.6651 17.3132C16.7762 17.3132 16.8861 17.2914 16.9886 17.2491C17.0911 17.2068 17.1842 17.1448 17.2624 17.0667C17.414 16.9113 17.4987 16.7036 17.4987 16.4875C17.4987 16.2714 17.414 16.0637 17.2624 15.9083ZM8.25316 14C7.08855 14 5.9501 13.6579 4.98176 13.0169C4.01342 12.3759 3.2587 11.4649 2.81302 10.399C2.36735 9.33308 2.25074 8.16019 2.47794 7.02864C2.70514 5.89708 3.26596 4.85768 4.08946 4.04187C4.91296 3.22607 5.96217 2.6705 7.1044 2.44542C8.24663 2.22034 9.43058 2.33585 10.5065 2.77737C11.5825 3.21888 12.5021 3.96655 13.1492 4.92584C13.7962 5.88512 14.1415 7.01294 14.1415 8.16666C14.1415 9.71376 13.5211 11.1975 12.4169 12.2915C11.3126 13.3854 9.81485 14 8.25316 14Z" fill="#231F20"/>
</svg>
