<svg width="30" height="30" viewBox="0 0 30 30" fill="none" xmlns="http://www.w3.org/2000/svg">
<path fill-rule="evenodd" clip-rule="evenodd" d="M15 30C23.2843 30 30 23.2843 30 15C30 6.71573 23.2843 0 15 0C6.71573 0 0 6.71573 0 15C0 23.2843 6.71573 30 15 30ZM20.8965 18.1047C20.9091 18.1255 20.9226 18.1515 20.9371 18.1828C20.9517 18.214 20.9663 18.2693 20.9811 18.3483C20.9955 18.4275 20.9946 18.4984 20.9779 18.5608C20.9611 18.6232 20.9092 18.6806 20.8217 18.7326C20.7344 18.7846 20.6113 18.8108 20.4531 18.8108L18.8537 18.8357C18.7536 18.8566 18.637 18.8461 18.5039 18.8045C18.3706 18.7629 18.2623 18.7171 18.1789 18.667L18.0539 18.5921C17.929 18.5045 17.7833 18.3713 17.6166 18.1922C17.45 18.0131 17.3074 17.8518 17.1887 17.708C17.0699 17.5644 16.9429 17.4435 16.8075 17.3456C16.672 17.2476 16.5544 17.2154 16.4544 17.2487C16.4419 17.253 16.4253 17.2601 16.4046 17.2706C16.3837 17.281 16.3481 17.3112 16.2982 17.3612C16.2484 17.411 16.2036 17.4725 16.1639 17.5454C16.1242 17.6183 16.0887 17.7266 16.0576 17.8703C16.0264 18.014 16.0128 18.1754 16.0171 18.3544C16.0171 18.4168 16.0098 18.4742 15.9952 18.5262C15.9807 18.5782 15.9651 18.6168 15.9484 18.6417L15.9235 18.673C15.8485 18.7521 15.7381 18.7979 15.5923 18.8105H14.8738C14.5781 18.8271 14.274 18.7928 13.9616 18.7073C13.6492 18.6219 13.3754 18.5116 13.14 18.3763C12.9047 18.2408 12.6902 18.1034 12.4964 17.9638C12.3028 17.8243 12.156 17.7045 12.056 17.6046L11.8998 17.4546C11.8581 17.413 11.8008 17.3506 11.7279 17.2672C11.655 17.1839 11.5062 16.9944 11.2812 16.6986C11.0563 16.403 10.8355 16.0885 10.6189 15.7552C10.4024 15.4222 10.1472 14.9827 9.8536 14.437C9.55997 13.8914 9.2882 13.3249 9.03829 12.7376C9.01328 12.671 9.00078 12.6147 9.00078 12.5689C9.00078 12.5231 9.00708 12.4897 9.01958 12.4689L9.04459 12.4314C9.10709 12.3523 9.22579 12.3127 9.40072 12.3127L11.1126 12.3002C11.1627 12.3085 11.2105 12.322 11.2564 12.3408C11.3021 12.3596 11.3355 12.3773 11.3563 12.3939L11.3876 12.4127C11.4542 12.4585 11.5042 12.5251 11.5375 12.6126C11.6208 12.8209 11.7165 13.0365 11.8249 13.2593C11.9332 13.4821 12.0186 13.6519 12.081 13.7685L12.181 13.9497C12.3018 14.1997 12.4184 14.4162 12.5308 14.5995C12.6433 14.7827 12.7443 14.9254 12.8339 15.0275C12.9235 15.1296 13.0099 15.2097 13.0932 15.268C13.1765 15.3264 13.2472 15.3556 13.3056 15.3556C13.3639 15.3556 13.4202 15.345 13.4743 15.3243C13.4826 15.3201 13.493 15.3097 13.5055 15.293C13.518 15.2764 13.543 15.2306 13.5805 15.1556C13.618 15.0806 13.6461 14.9828 13.6649 14.862C13.6837 14.7412 13.7034 14.5725 13.7242 14.3559C13.745 14.1393 13.745 13.879 13.7242 13.5749C13.7159 13.4083 13.6971 13.2563 13.668 13.1189C13.6389 12.9814 13.6097 12.8856 13.5805 12.8315L13.543 12.7564C13.4388 12.6148 13.2619 12.5252 13.0119 12.4878C12.9578 12.4796 12.9683 12.4295 13.0432 12.3379C13.114 12.2588 13.1932 12.1963 13.2806 12.1505C13.5014 12.0422 13.9992 11.9922 14.7739 12.0005C15.1155 12.0047 15.3966 12.0317 15.6174 12.0817C15.7006 12.1026 15.7705 12.1307 15.8267 12.1661C15.8828 12.2015 15.9256 12.2515 15.9548 12.316C15.9838 12.3806 16.0059 12.4473 16.0202 12.516C16.0348 12.5847 16.0421 12.6795 16.0421 12.8003C16.0421 12.9211 16.0401 13.0356 16.0359 13.1439C16.0316 13.2521 16.0265 13.399 16.0202 13.5843C16.014 13.7697 16.011 13.9415 16.011 14.0998C16.011 14.1456 16.009 14.233 16.0047 14.3622C16.0004 14.4913 15.9996 14.5914 16.0015 14.6621C16.0036 14.733 16.011 14.8172 16.0234 14.9152C16.0359 15.0131 16.0598 15.0943 16.0953 15.1589C16.1306 15.2234 16.1775 15.2744 16.2358 15.312C16.2692 15.3203 16.3046 15.3286 16.3421 15.337C16.3795 15.3453 16.4336 15.3224 16.5044 15.2682C16.5754 15.214 16.6544 15.1422 16.7419 15.0527C16.8293 14.9632 16.9376 14.8236 17.0667 14.6341C17.196 14.4446 17.3375 14.2208 17.4917 13.9625C17.7416 13.5293 17.9644 13.0607 18.1603 12.5567C18.1769 12.5151 18.1977 12.4785 18.2226 12.4474C18.2476 12.4161 18.2705 12.3943 18.2913 12.3818L18.3162 12.363L18.3475 12.3474L18.4288 12.3286C18.483 12.3161 18.5246 12.3151 18.5538 12.3254L20.3531 12.313C20.5156 12.2922 20.6488 12.2974 20.7531 12.3286C20.8571 12.3599 20.9217 12.3942 20.9467 12.4317L20.9839 12.494C21.0798 12.7606 20.7673 13.3728 20.0467 14.3309C19.9468 14.4642 19.8115 14.6412 19.6406 14.8619C19.3158 15.2785 19.1282 15.5512 19.0783 15.6803C19.0076 15.8512 19.0366 16.0199 19.1659 16.1865C19.2366 16.274 19.4054 16.4448 19.6719 16.6989H19.6782L19.6845 16.7052L19.6907 16.7113L19.7031 16.7238C20.2904 17.2695 20.6883 17.7297 20.8965 18.1047Z" fill="#152748" fill-opacity="0.2"/>
</svg>
