<svg width="30" height="30" viewBox="0 0 30 30" fill="none" xmlns="http://www.w3.org/2000/svg">
<path fill-rule="evenodd" clip-rule="evenodd" d="M15 30C23.2843 30 30 23.2843 30 15C30 6.71573 23.2843 0 15 0C6.71573 0 0 6.71573 0 15C0 23.2843 6.71573 30 15 30ZM19.0928 11.069C19.812 11.1095 20.1653 11.216 20.4908 11.795C20.8298 12.3733 21.0008 13.3692 21.0008 15.1235V15.1257V15.1295C21.0008 16.8755 20.8298 17.879 20.4915 18.4512C20.166 19.0302 19.8128 19.1352 19.0935 19.184C18.3743 19.2252 16.5675 19.25 15.0023 19.25C13.434 19.25 11.6265 19.2252 10.908 19.1832C10.1903 19.1345 9.83703 19.0295 9.50853 18.4505C9.17328 17.8782 9.00078 16.8747 9.00078 15.1287V15.1272V15.125V15.1227C9.00078 13.3692 9.17328 12.3733 9.50853 11.795C9.83703 11.2153 10.191 11.1095 10.9088 11.0682C11.6265 11.0203 13.434 11 15.0023 11C16.5675 11 18.3743 11.0203 19.0928 11.069ZM17.2508 15.125L13.5008 12.875V17.375L17.2508 15.125Z" fill="#152748" fill-opacity="0.2"/>
</svg>
